<?xml version="1.0" encoding="UTF-8"?>
<svg id="Capa_2" data-name="Capa 2" xmlns="http://www.w3.org/2000/svg" viewBox="0 0 282.13 282.13">
  <defs>
    <style>
      .cls-1 {
        fill: #fff;
      }
    </style>
  </defs>
  <g id="Capa_1-2" data-name="Capa 1">
    <g>
      <rect x="0" y="0" width="282.13" height="282.13" rx="104.48" ry="104.48"/>
      <path class="cls-1" d="M184.33,216.79c-14.62,0-26.79-4.92-36.49-14.77-8.53-8.23-14.11-19.99-16.75-35.27-.15-1.32-.33-2.46-.55-3.42-.22-.95-.33-1.51-.33-1.65l-2.42,6.17c-6.76,18.08-13.38,28.29-19.84,30.64-2.5.88-5.4,1.32-8.71,1.32-6.17,0-12.82-1.54-19.95-4.63-18.67-9.55-28-25.98-28-49.27,0-10.21,1.4-22.3,4.19-36.27,4.26-19.84,10.29-32.11,18.08-36.82,3.53-2.06,7.39-3.09,11.57-3.09,3.01,0,6.13.52,9.37,1.54,9.7,3.09,14.55,7.68,14.55,13.78,0,1.62-1.32,6.21-3.97,13.78-6.03,16.98-9.22,33.18-9.59,48.61l-.11,7.94c0,5.81.55,11.39,1.65,16.75,1.4,6.39,2.28,9.59,2.65,9.59.44,0,1.87-1.36,4.3-4.08,7.72-8.82,15.98-25.83,24.8-51.04.81-2.28,1.21-4.85,1.21-7.72,1.1-14.55,2.42-24.98,3.97-31.3,1.03-4.7,2.68-7.92,4.96-9.65,2.28-1.73,5.22-2.59,8.82-2.59,6.32,0,12.05,1.4,17.2,4.19,6.91,3.75,10.54,8.08,10.91,13.01l.11,3.09c0,2.06-.18,4.81-.55,8.27-1.69,18.37-2.54,33.03-2.54,43.98,0,14.62,1.8,26.12,5.4,34.5,4.7,11.02,7.13,16.53,7.27,16.53.51,0,2.43-1.84,5.73-5.51,10.65-11.76,18.22-30.64,22.71-56.66,1.47-7.86,2.2-17.2,2.2-28,0-12.64-.66-20.43-1.98-23.37-.29-.51-.88-2.87-1.76-7.05-.22-2.87-.81-5.44-1.76-7.72-.52-1.47-.77-2.61-.77-3.42,0-1.25,1.21-1.87,3.64-1.87,2.94,0,5.14.66,6.61,1.98,1.62,2.06,3.8,8.62,6.56,19.68,2.76,11.06,4.13,21.11,4.13,30.15,0,24.4-4.74,47.62-14.22,69.67-3.53,8.82-8.01,16.02-13.45,21.6-3.09,3.23-5.99,5.44-8.71,6.61-2.72,1.17-6.1,1.76-10.14,1.76Z"/>
    </g>
  </g>
</svg>