<?xml version="1.0" encoding="UTF-8"?>
<svg id="Capa_2" data-name="Capa 2" xmlns="http://www.w3.org/2000/svg" viewBox="0 0 863.01 282.13">
  <defs>
    <style>
      .cls-1 {
        fill: #fff;
      }
    </style>
  </defs>
  <g id="Capa_1-2" data-name="Capa 1">
    <g>
      <path d="M384.87,184.59c-2.42,4.08-5.48,7.22-9.18,9.43s-7.97,3.31-12.81,3.31c-8.26,0-14.71-2.63-19.36-7.9-4.65-5.27-6.98-13.45-6.98-24.56v-46.05h17.22v46.19c0,6.74,1.09,11.46,3.27,14.16,2.18,2.7,5.48,4.06,9.89,4.06,4.18,0,7.67-.75,10.5-2.24,2.82-1.49,5.04-3.67,6.66-6.51v-55.66h17.3v77.01h-15.09l-1.42-11.25Z"/>
      <path d="M479.93,173.63l.43-.07,12.03-54.74h16.58l-21.07,77.01h-14.16l-16.37-52.6-.14-.71-.07.71-16.23,52.6h-14.16l-21.07-77.01h16.58l12.31,53.95.43.07,16.01-54.02h12.6l16.3,54.81Z"/>
      <path d="M561.76,184.59c-2.42,4.08-5.48,7.22-9.18,9.43s-7.97,3.31-12.81,3.31c-8.26,0-14.71-2.63-19.36-7.9-4.65-5.27-6.98-13.45-6.98-24.56v-46.05h17.22v46.19c0,6.74,1.09,11.46,3.27,14.16,2.18,2.7,5.48,4.06,9.89,4.06,4.18,0,7.67-.75,10.5-2.24,2.82-1.49,5.04-3.67,6.66-6.51v-55.66h17.3v77.01h-15.09l-1.42-11.25Z"/>
      <path d="M662.09,106.08h-31.32v89.75h-17.3v-89.75h-31.32v-13.88h79.93v13.88Z"/>
      <path d="M692.31,197.33c-10.91,0-19.61-3.57-26.09-10.71-6.48-7.14-9.72-16.31-9.72-27.51v-2.85c0-11.2,3.21-20.49,9.64-27.87,6.43-7.38,14.48-11.04,24.16-11,10.39,0,18.35,3.14,23.88,9.43,5.53,6.29,8.29,14.72,8.29,25.3v10.18h-48.04l-.14.35c.28,6.1,2.08,11.09,5.37,14.97,3.3,3.88,7.87,5.82,13.7,5.82,4.65,0,8.64-.57,11.96-1.71,3.32-1.14,6.52-2.78,9.61-4.91l5.55,11.34c-2.89,2.58-6.74,4.75-11.53,6.51-4.79,1.76-10.34,2.65-16.65,2.65ZM690.32,131.28c-4.27,0-7.78,1.7-10.53,5.09-2.75,3.39-4.46,7.7-5.12,12.92l.14.36h30.53v-1.78c0-4.89-1.25-8.87-3.74-11.96-2.49-3.08-6.25-4.63-11.28-4.63Z"/>
      <path d="M760.97,183.45c4.22,0,7.78-1.24,10.68-3.72,2.89-2.48,4.34-5.58,4.34-9.31h15.66l.14.43c.24,7.21-2.69,13.43-8.79,18.65-6.1,5.22-13.44,7.83-22.03,7.83-11.34,0-20.04-3.65-26.09-10.96-6.05-7.31-9.08-16.56-9.08-27.76v-2.49c0-11.15,3.03-20.39,9.08-27.72s14.74-11,26.09-11c9.25,0,16.76,2.69,22.53,8.08,5.77,5.39,8.55,12.23,8.36,20.53l-.14.43h-15.73c0-4.22-1.39-7.81-4.16-10.75-2.78-2.94-6.39-4.41-10.85-4.41-6.5,0-11.1,2.36-13.81,7.07-2.7,4.72-4.06,10.63-4.06,17.73v2.49c0,7.25,1.35,13.21,4.06,17.88s7.31,7,13.81,7Z"/>
      <path d="M815.46,128.79c2.56-3.61,5.68-6.41,9.36-8.4,3.68-1.99,7.75-2.99,12.21-2.99,8.16,0,14.53,2.57,19.11,7.72,4.58,5.15,6.87,13.09,6.87,23.81v46.91h-17.3v-47.05c0-6.07-1.21-10.46-3.63-13.17s-6.05-4.06-10.89-4.06c-3.37,0-6.39.7-9.08,2.1-2.68,1.4-4.9,3.33-6.66,5.8v56.37h-17.3v-111.04h17.3v43.99Z"/>
    </g>
    <g>
      <rect x="0" y="0" width="282.13" height="282.13" rx="104.48" ry="104.48"/>
      <path class="cls-1" d="M184.33,216.79c-14.62,0-26.79-4.92-36.49-14.77-8.53-8.23-14.11-19.99-16.75-35.27-.15-1.32-.33-2.46-.55-3.42-.22-.95-.33-1.51-.33-1.65l-2.42,6.17c-6.76,18.08-13.38,28.29-19.84,30.64-2.5.88-5.4,1.32-8.71,1.32-6.17,0-12.82-1.54-19.95-4.63-18.67-9.55-28-25.98-28-49.27,0-10.21,1.4-22.3,4.19-36.27,4.26-19.84,10.29-32.11,18.08-36.82,3.53-2.06,7.39-3.09,11.57-3.09,3.01,0,6.13.52,9.37,1.54,9.7,3.09,14.55,7.68,14.55,13.78,0,1.62-1.32,6.21-3.97,13.78-6.03,16.98-9.22,33.18-9.59,48.61l-.11,7.94c0,5.81.55,11.39,1.65,16.75,1.4,6.39,2.28,9.59,2.65,9.59.44,0,1.87-1.36,4.3-4.08,7.72-8.82,15.98-25.83,24.8-51.04.81-2.28,1.21-4.85,1.21-7.72,1.1-14.55,2.42-24.98,3.97-31.3,1.03-4.7,2.68-7.92,4.96-9.65,2.28-1.73,5.22-2.59,8.82-2.59,6.32,0,12.05,1.4,17.2,4.19,6.91,3.75,10.54,8.08,10.91,13.01l.11,3.09c0,2.06-.18,4.81-.55,8.27-1.69,18.37-2.54,33.03-2.54,43.98,0,14.62,1.8,26.12,5.4,34.5,4.7,11.02,7.13,16.53,7.27,16.53.51,0,2.43-1.84,5.73-5.51,10.65-11.76,18.22-30.64,22.71-56.66,1.47-7.86,2.2-17.2,2.2-28,0-12.64-.66-20.43-1.98-23.37-.29-.51-.88-2.87-1.76-7.05-.22-2.87-.81-5.44-1.76-7.72-.52-1.47-.77-2.61-.77-3.42,0-1.25,1.21-1.87,3.64-1.87,2.94,0,5.14.66,6.61,1.98,1.62,2.06,3.8,8.62,6.56,19.68,2.76,11.06,4.13,21.11,4.13,30.15,0,24.4-4.74,47.62-14.22,69.67-3.53,8.82-8.01,16.02-13.45,21.6-3.09,3.23-5.99,5.44-8.71,6.61-2.72,1.17-6.1,1.76-10.14,1.76Z"/>
    </g>
  </g>
</svg>